<mxfile host="Electron" modified="2023-10-29T13:50:25.529Z" agent="Mozilla/5.0 (X11; Linux x86_64) AppleWebKit/537.36 (KHTML, like Gecko) draw.io/22.0.3 Chrome/114.0.5735.289 Electron/25.8.4 Safari/537.36" etag="4pdwxTvYFJxIYDoFRaNv" version="22.0.3" type="device">
  <diagram name="PÃ¡gina-1" id="AKCH0TBNHGq56YB6MM5J">
    <mxGraphModel dx="528" dy="324" grid="1" gridSize="10" guides="1" tooltips="1" connect="1" arrows="1" fold="1" page="1" pageScale="1" pageWidth="827" pageHeight="1169" math="0" shadow="0">
      <root>
        <mxCell id="0" />
        <mxCell id="1" parent="0" />
        <mxCell id="46ZwgOibdGxCUjzkoEb6-3" value="Genetic Algorithm" style="rounded=0;whiteSpace=wrap;html=1;fillColor=#fff2cc;strokeColor=#d6b656;" parent="1" vertex="1">
          <mxGeometry x="110" y="250" width="120" height="60" as="geometry" />
        </mxCell>
        <mxCell id="46ZwgOibdGxCUjzkoEb6-7" value="&lt;font style=&quot;font-size: 5px;&quot;&gt;Car&lt;/font&gt;" style="rounded=0;whiteSpace=wrap;html=1;strokeWidth=0.5;align=center;verticalAlign=bottom;fontSize=5;" parent="1" vertex="1">
          <mxGeometry x="40" y="185" width="30" height="10" as="geometry" />
        </mxCell>
        <mxCell id="46ZwgOibdGxCUjzkoEb6-9" value="&lt;font style=&quot;font-size: 5px;&quot;&gt;Null&lt;/font&gt;" style="rounded=0;whiteSpace=wrap;html=1;strokeWidth=0.5;align=center;verticalAlign=bottom;fontSize=5;fillColor=#f8cecc;strokeColor=#b85450;" parent="1" vertex="1">
          <mxGeometry x="100" y="185" width="30" height="10" as="geometry" />
        </mxCell>
        <mxCell id="46ZwgOibdGxCUjzkoEb6-10" value="&lt;font style=&quot;font-size: 5px;&quot;&gt;0&lt;/font&gt;" style="rounded=0;whiteSpace=wrap;html=1;strokeWidth=0.5;align=center;verticalAlign=bottom;fontSize=5;fontStyle=1" parent="1" vertex="1">
          <mxGeometry x="20" y="185" width="20" height="10" as="geometry" />
        </mxCell>
        <mxCell id="46ZwgOibdGxCUjzkoEb6-15" value="&lt;font style=&quot;font-size: 5px;&quot;&gt;&lt;b&gt;1&lt;/b&gt;&lt;/font&gt;" style="rounded=0;whiteSpace=wrap;html=1;strokeWidth=0.5;align=center;verticalAlign=bottom;fontSize=5;" parent="1" vertex="1">
          <mxGeometry x="20" y="195" width="20" height="10" as="geometry" />
        </mxCell>
        <mxCell id="46ZwgOibdGxCUjzkoEb6-20" value="&lt;font style=&quot;font-size: 5px;&quot;&gt;Wet&lt;/font&gt;" style="rounded=0;whiteSpace=wrap;html=1;strokeWidth=0.5;align=center;verticalAlign=bottom;fontSize=5;" parent="1" vertex="1">
          <mxGeometry x="100" y="205" width="30" height="10" as="geometry" />
        </mxCell>
        <mxCell id="46ZwgOibdGxCUjzkoEb6-26" value="Slight" style="rounded=0;whiteSpace=wrap;html=1;strokeWidth=0.5;align=center;verticalAlign=bottom;fontSize=5;" parent="1" vertex="1">
          <mxGeometry x="70" y="215" width="30" height="10" as="geometry" />
        </mxCell>
        <mxCell id="46ZwgOibdGxCUjzkoEb6-27" value="&lt;font style=&quot;font-size: 5px;&quot;&gt;&lt;b&gt;3&lt;/b&gt;&lt;/font&gt;" style="rounded=0;whiteSpace=wrap;html=1;strokeWidth=0.5;align=center;verticalAlign=bottom;fontSize=5;" parent="1" vertex="1">
          <mxGeometry x="20" y="215" width="20" height="10" as="geometry" />
        </mxCell>
        <mxCell id="46ZwgOibdGxCUjzkoEb6-28" value="&lt;font style=&quot;font-size: 5px;&quot;&gt;Snow&lt;/font&gt;" style="rounded=0;whiteSpace=wrap;html=1;strokeWidth=0.5;align=center;verticalAlign=bottom;fontSize=5;" parent="1" vertex="1">
          <mxGeometry x="100" y="215" width="30" height="10" as="geometry" />
        </mxCell>
        <mxCell id="46ZwgOibdGxCUjzkoEb6-29" value="&lt;font style=&quot;font-size: 5px;&quot;&gt;Null&lt;/font&gt;" style="rounded=0;whiteSpace=wrap;html=1;strokeWidth=0.5;align=center;verticalAlign=bottom;fontSize=5;fillColor=#f8cecc;strokeColor=#b85450;" parent="1" vertex="1">
          <mxGeometry x="40" y="205" width="30" height="10" as="geometry" />
        </mxCell>
        <mxCell id="46ZwgOibdGxCUjzkoEb6-46" value="" style="endArrow=classic;html=1;rounded=0;entryX=0;entryY=0.5;entryDx=0;entryDy=0;exitX=0.25;exitY=1;exitDx=0;exitDy=0;" parent="1" source="46ZwgOibdGxCUjzkoEb6-225" target="46ZwgOibdGxCUjzkoEb6-3" edge="1">
          <mxGeometry width="50" height="50" relative="1" as="geometry">
            <mxPoint x="50" y="270" as="sourcePoint" />
            <mxPoint x="270" y="300" as="targetPoint" />
            <Array as="points">
              <mxPoint x="78" y="280" />
            </Array>
          </mxGeometry>
        </mxCell>
        <mxCell id="46ZwgOibdGxCUjzkoEb6-47" value="" style="endArrow=classic;html=1;rounded=0;exitX=1;exitY=0.5;exitDx=0;exitDy=0;entryX=0.5;entryY=1;entryDx=0;entryDy=0;" parent="1" source="46ZwgOibdGxCUjzkoEb6-3" edge="1" target="_C5KG6zpCRyK99vuwPRU-2">
          <mxGeometry width="50" height="50" relative="1" as="geometry">
            <mxPoint x="200" y="340" as="sourcePoint" />
            <mxPoint x="250" y="235" as="targetPoint" />
            <Array as="points">
              <mxPoint x="250" y="280" />
            </Array>
          </mxGeometry>
        </mxCell>
        <mxCell id="46ZwgOibdGxCUjzkoEb6-64" value="&lt;font style=&quot;font-size: 5px;&quot;&gt;&lt;b&gt;Row&lt;/b&gt;&lt;/font&gt;" style="rounded=0;whiteSpace=wrap;html=1;strokeWidth=1;align=center;verticalAlign=bottom;fontSize=5;" parent="1" vertex="1">
          <mxGeometry x="20" y="175" width="20" height="10" as="geometry" />
        </mxCell>
        <mxCell id="46ZwgOibdGxCUjzkoEb6-65" value="&lt;font style=&quot;font-size: 5px;&quot;&gt;&lt;b&gt;Vehicle&lt;/b&gt;&lt;/font&gt;" style="rounded=0;whiteSpace=wrap;html=1;strokeWidth=1;align=center;verticalAlign=bottom;fontSize=5;" parent="1" vertex="1">
          <mxGeometry x="40" y="175" width="30" height="10" as="geometry" />
        </mxCell>
        <mxCell id="46ZwgOibdGxCUjzkoEb6-19" value="&lt;font style=&quot;font-size: 5px;&quot;&gt;&lt;b&gt;2&lt;/b&gt;&lt;/font&gt;" style="rounded=0;whiteSpace=wrap;html=1;strokeWidth=0.5;align=center;verticalAlign=bottom;fontSize=5;" parent="1" vertex="1">
          <mxGeometry x="20" y="205" width="20" height="10" as="geometry" />
        </mxCell>
        <mxCell id="46ZwgOibdGxCUjzkoEb6-18" value="Slight" style="rounded=0;whiteSpace=wrap;html=1;strokeWidth=0.5;align=center;verticalAlign=bottom;fontSize=5;" parent="1" vertex="1">
          <mxGeometry x="70" y="205" width="30" height="10" as="geometry" />
        </mxCell>
        <mxCell id="46ZwgOibdGxCUjzkoEb6-12" value="&lt;font style=&quot;font-size: 5px;&quot;&gt;Bus&lt;/font&gt;" style="rounded=0;whiteSpace=wrap;html=1;strokeWidth=0.5;align=center;verticalAlign=bottom;fontSize=5;" parent="1" vertex="1">
          <mxGeometry x="40" y="195" width="30" height="10" as="geometry" />
        </mxCell>
        <mxCell id="46ZwgOibdGxCUjzkoEb6-25" value="&lt;font style=&quot;font-size: 5px;&quot;&gt;Moto&lt;/font&gt;" style="rounded=0;whiteSpace=wrap;html=1;strokeWidth=0.5;align=center;verticalAlign=bottom;fontSize=5;" parent="1" vertex="1">
          <mxGeometry x="40" y="215" width="30" height="10" as="geometry" />
        </mxCell>
        <mxCell id="46ZwgOibdGxCUjzkoEb6-8" value="&lt;font style=&quot;font-size: 5px;&quot;&gt;Slight&lt;/font&gt;" style="rounded=0;whiteSpace=wrap;html=1;strokeWidth=0.5;align=center;verticalAlign=bottom;fontSize=5;" parent="1" vertex="1">
          <mxGeometry x="70" y="185" width="30" height="10" as="geometry" />
        </mxCell>
        <mxCell id="46ZwgOibdGxCUjzkoEb6-13" value="&lt;font style=&quot;font-size: 5px;&quot;&gt;Assistance&lt;/font&gt;" style="rounded=0;whiteSpace=wrap;html=1;strokeWidth=0.5;align=center;verticalAlign=bottom;fontSize=5;" parent="1" vertex="1">
          <mxGeometry x="70" y="195" width="30" height="10" as="geometry" />
        </mxCell>
        <mxCell id="46ZwgOibdGxCUjzkoEb6-16" value="&lt;font style=&quot;font-size: 5px;&quot;&gt;Dry&lt;/font&gt;" style="rounded=0;whiteSpace=wrap;html=1;strokeWidth=0.5;align=center;verticalAlign=bottom;fontSize=5;" parent="1" vertex="1">
          <mxGeometry x="100" y="195" width="30" height="10" as="geometry" />
        </mxCell>
        <mxCell id="46ZwgOibdGxCUjzkoEb6-67" value="&lt;font style=&quot;font-size: 5px;&quot;&gt;&lt;b&gt;Weather&lt;/b&gt;&lt;/font&gt;" style="rounded=0;whiteSpace=wrap;html=1;strokeWidth=1;align=center;verticalAlign=bottom;fontSize=5;" parent="1" vertex="1">
          <mxGeometry x="100" y="175" width="30" height="10" as="geometry" />
        </mxCell>
        <mxCell id="46ZwgOibdGxCUjzkoEb6-66" value="&lt;b&gt;Severity&lt;/b&gt;" style="rounded=0;whiteSpace=wrap;html=1;strokeWidth=1;align=center;verticalAlign=bottom;fontSize=5;" parent="1" vertex="1">
          <mxGeometry x="70" y="175" width="30" height="10" as="geometry" />
        </mxCell>
        <mxCell id="46ZwgOibdGxCUjzkoEb6-74" value="&lt;font style=&quot;font-size: 5px;&quot;&gt;Value&lt;/font&gt;" style="rounded=0;whiteSpace=wrap;html=1;strokeWidth=0.5;align=center;verticalAlign=bottom;fontSize=5;" parent="1" vertex="1">
          <mxGeometry x="130" y="195" width="20" height="10" as="geometry" />
        </mxCell>
        <mxCell id="46ZwgOibdGxCUjzkoEb6-75" value="&lt;font style=&quot;font-size: 5px;&quot;&gt;Value&lt;/font&gt;" style="rounded=0;whiteSpace=wrap;html=1;strokeWidth=0.5;align=center;verticalAlign=bottom;fontSize=5;" parent="1" vertex="1">
          <mxGeometry x="130" y="205" width="20" height="10" as="geometry" />
        </mxCell>
        <mxCell id="46ZwgOibdGxCUjzkoEb6-76" value="&lt;font style=&quot;font-size: 5px;&quot;&gt;Value&lt;/font&gt;" style="rounded=0;whiteSpace=wrap;html=1;strokeWidth=0.5;align=center;verticalAlign=bottom;fontSize=5;" parent="1" vertex="1">
          <mxGeometry x="130" y="185" width="20" height="10" as="geometry" />
        </mxCell>
        <mxCell id="46ZwgOibdGxCUjzkoEb6-77" value="&lt;font style=&quot;font-size: 5px;&quot;&gt;Value&lt;/font&gt;" style="rounded=0;whiteSpace=wrap;html=1;strokeWidth=0.5;align=center;verticalAlign=bottom;fontSize=5;" parent="1" vertex="1">
          <mxGeometry x="130" y="215" width="20" height="10" as="geometry" />
        </mxCell>
        <mxCell id="46ZwgOibdGxCUjzkoEb6-78" value="&lt;font style=&quot;font-size: 5px;&quot;&gt;Value&lt;/font&gt;" style="rounded=0;whiteSpace=wrap;html=1;strokeWidth=0.5;align=center;verticalAlign=bottom;fontSize=5;" parent="1" vertex="1">
          <mxGeometry x="150" y="185" width="20" height="10" as="geometry" />
        </mxCell>
        <mxCell id="46ZwgOibdGxCUjzkoEb6-79" value="&lt;font style=&quot;font-size: 5px;&quot;&gt;Value&lt;/font&gt;" style="rounded=0;whiteSpace=wrap;html=1;strokeWidth=0.5;align=center;verticalAlign=bottom;fontSize=5;" parent="1" vertex="1">
          <mxGeometry x="150" y="195" width="20" height="10" as="geometry" />
        </mxCell>
        <mxCell id="46ZwgOibdGxCUjzkoEb6-80" value="&lt;font style=&quot;font-size: 5px;&quot;&gt;Value&lt;/font&gt;" style="rounded=0;whiteSpace=wrap;html=1;strokeWidth=0.5;align=center;verticalAlign=bottom;fontSize=5;" parent="1" vertex="1">
          <mxGeometry x="150" y="205" width="20" height="10" as="geometry" />
        </mxCell>
        <mxCell id="46ZwgOibdGxCUjzkoEb6-81" value="&lt;font style=&quot;font-size: 5px;&quot;&gt;Value&lt;/font&gt;" style="rounded=0;whiteSpace=wrap;html=1;strokeWidth=0.5;align=center;verticalAlign=bottom;fontSize=5;" parent="1" vertex="1">
          <mxGeometry x="150" y="215" width="20" height="10" as="geometry" />
        </mxCell>
        <mxCell id="46ZwgOibdGxCUjzkoEb6-72" value="&lt;font style=&quot;font-size: 5px;&quot;&gt;&lt;b&gt;Lat&lt;/b&gt;&lt;/font&gt;" style="rounded=0;whiteSpace=wrap;html=1;strokeWidth=1;align=center;verticalAlign=bottom;fontSize=5;" parent="1" vertex="1">
          <mxGeometry x="130" y="175" width="20" height="10" as="geometry" />
        </mxCell>
        <mxCell id="46ZwgOibdGxCUjzkoEb6-73" value="&lt;font style=&quot;font-size: 5px;&quot;&gt;&lt;b&gt;Lon&lt;/b&gt;&lt;/font&gt;" style="rounded=0;whiteSpace=wrap;html=1;strokeWidth=1;align=center;verticalAlign=bottom;fontSize=5;" parent="1" vertex="1">
          <mxGeometry x="150" y="175" width="20" height="10" as="geometry" />
        </mxCell>
        <mxCell id="46ZwgOibdGxCUjzkoEb6-117" value="&lt;b style=&quot;border-color: var(--border-color);&quot;&gt;Vehicle&lt;/b&gt;" style="rounded=0;whiteSpace=wrap;html=1;strokeWidth=0.5;align=center;verticalAlign=bottom;fontSize=5;" parent="1" vertex="1">
          <mxGeometry x="235" y="185" width="30" height="10" as="geometry" />
        </mxCell>
        <mxCell id="46ZwgOibdGxCUjzkoEb6-120" value="&lt;b style=&quot;border-color: var(--border-color);&quot;&gt;Weather&lt;/b&gt;" style="rounded=0;whiteSpace=wrap;html=1;strokeWidth=0.5;align=center;verticalAlign=bottom;fontSize=5;" parent="1" vertex="1">
          <mxGeometry x="235" y="195" width="30" height="10" as="geometry" />
        </mxCell>
        <mxCell id="46ZwgOibdGxCUjzkoEb6-127" value="&lt;font style=&quot;font-size: 5px;&quot;&gt;0,3&lt;/font&gt;" style="rounded=0;whiteSpace=wrap;html=1;strokeWidth=0.5;align=center;verticalAlign=bottom;fontSize=5;" parent="1" vertex="1">
          <mxGeometry x="265" y="185" width="30" height="10" as="geometry" />
        </mxCell>
        <mxCell id="46ZwgOibdGxCUjzkoEb6-128" value="&lt;font style=&quot;font-size: 5px;&quot;&gt;0,05&lt;/font&gt;" style="rounded=0;whiteSpace=wrap;html=1;strokeWidth=0.5;align=center;verticalAlign=bottom;fontSize=5;" parent="1" vertex="1">
          <mxGeometry x="265" y="195" width="30" height="10" as="geometry" />
        </mxCell>
        <mxCell id="46ZwgOibdGxCUjzkoEb6-180" value="" style="endArrow=classic;html=1;rounded=0;entryX=0;entryY=0.5;entryDx=0;entryDy=0;exitX=1;exitY=0;exitDx=0;exitDy=0;" parent="1" source="46ZwgOibdGxCUjzkoEb6-234" edge="1">
          <mxGeometry width="50" height="50" relative="1" as="geometry">
            <mxPoint x="312.5" y="220" as="sourcePoint" />
            <mxPoint x="330" y="204.5" as="targetPoint" />
            <Array as="points" />
          </mxGeometry>
        </mxCell>
        <mxCell id="46ZwgOibdGxCUjzkoEb6-225" value="Slight" style="rounded=0;whiteSpace=wrap;html=1;strokeWidth=0.5;align=center;verticalAlign=bottom;fontSize=5;" parent="1" vertex="1">
          <mxGeometry x="70" y="225" width="30" height="10" as="geometry" />
        </mxCell>
        <mxCell id="46ZwgOibdGxCUjzkoEb6-226" value="&lt;font style=&quot;font-size: 5px;&quot;&gt;&lt;b&gt;4&lt;/b&gt;&lt;/font&gt;" style="rounded=0;whiteSpace=wrap;html=1;strokeWidth=0.5;align=center;verticalAlign=bottom;fontSize=5;" parent="1" vertex="1">
          <mxGeometry x="20" y="225" width="20" height="10" as="geometry" />
        </mxCell>
        <mxCell id="46ZwgOibdGxCUjzkoEb6-227" value="Wet" style="rounded=0;whiteSpace=wrap;html=1;strokeWidth=0.5;align=center;verticalAlign=bottom;fontSize=5;" parent="1" vertex="1">
          <mxGeometry x="100" y="225" width="30" height="10" as="geometry" />
        </mxCell>
        <mxCell id="46ZwgOibdGxCUjzkoEb6-228" value="Car" style="rounded=0;whiteSpace=wrap;html=1;strokeWidth=0.5;align=center;verticalAlign=bottom;fontSize=5;" parent="1" vertex="1">
          <mxGeometry x="40" y="225" width="30" height="10" as="geometry" />
        </mxCell>
        <mxCell id="46ZwgOibdGxCUjzkoEb6-229" value="&lt;font style=&quot;font-size: 5px;&quot;&gt;Value&lt;/font&gt;" style="rounded=0;whiteSpace=wrap;html=1;strokeWidth=0.5;align=center;verticalAlign=bottom;fontSize=5;" parent="1" vertex="1">
          <mxGeometry x="130" y="225" width="20" height="10" as="geometry" />
        </mxCell>
        <mxCell id="46ZwgOibdGxCUjzkoEb6-230" value="&lt;font style=&quot;font-size: 5px;&quot;&gt;Value&lt;/font&gt;" style="rounded=0;whiteSpace=wrap;html=1;strokeWidth=0.5;align=center;verticalAlign=bottom;fontSize=5;" parent="1" vertex="1">
          <mxGeometry x="150" y="225" width="20" height="10" as="geometry" />
        </mxCell>
        <mxCell id="46ZwgOibdGxCUjzkoEb6-232" value="&lt;b style=&quot;border-color: var(--border-color);&quot;&gt;Lat&lt;/b&gt;" style="rounded=0;whiteSpace=wrap;html=1;strokeWidth=0.5;align=center;verticalAlign=bottom;fontSize=5;" parent="1" vertex="1">
          <mxGeometry x="235" y="205" width="30" height="10" as="geometry" />
        </mxCell>
        <mxCell id="46ZwgOibdGxCUjzkoEb6-234" value="&lt;font style=&quot;font-size: 5px;&quot;&gt;0,1&lt;/font&gt;" style="rounded=0;whiteSpace=wrap;html=1;strokeWidth=0.5;align=center;verticalAlign=bottom;fontSize=5;" parent="1" vertex="1">
          <mxGeometry x="265" y="205" width="30" height="10" as="geometry" />
        </mxCell>
        <mxCell id="_C5KG6zpCRyK99vuwPRU-2" value="&lt;b style=&quot;border-color: var(--border-color);&quot;&gt;Lon&lt;/b&gt;" style="rounded=0;whiteSpace=wrap;html=1;strokeWidth=0.5;align=center;verticalAlign=bottom;fontSize=5;" vertex="1" parent="1">
          <mxGeometry x="235" y="215" width="30" height="10" as="geometry" />
        </mxCell>
        <mxCell id="_C5KG6zpCRyK99vuwPRU-4" value="&lt;font style=&quot;font-size: 5px;&quot;&gt;0,2&lt;/font&gt;" style="rounded=0;whiteSpace=wrap;html=1;strokeWidth=0.5;align=center;verticalAlign=bottom;fontSize=5;" vertex="1" parent="1">
          <mxGeometry x="265" y="215" width="30" height="10" as="geometry" />
        </mxCell>
        <mxCell id="46ZwgOibdGxCUjzkoEb6-123" value="&lt;font style=&quot;font-size: 5px;&quot;&gt;&lt;b&gt;Feature&lt;/b&gt;&lt;/font&gt;" style="rounded=0;whiteSpace=wrap;html=1;strokeWidth=1;align=center;verticalAlign=bottom;fontSize=5;" parent="1" vertex="1">
          <mxGeometry x="235" y="175" width="30" height="10" as="geometry" />
        </mxCell>
        <mxCell id="46ZwgOibdGxCUjzkoEb6-124" value="&lt;b&gt;Weight&lt;/b&gt;" style="rounded=0;whiteSpace=wrap;html=1;strokeWidth=1;align=center;verticalAlign=bottom;fontSize=5;" parent="1" vertex="1">
          <mxGeometry x="265" y="175" width="30" height="10" as="geometry" />
        </mxCell>
        <mxCell id="_C5KG6zpCRyK99vuwPRU-6" value="" style="endArrow=classic;html=1;rounded=0;exitX=0.5;exitY=0;exitDx=0;exitDy=0;entryX=0.537;entryY=0.015;entryDx=0;entryDy=0;entryPerimeter=0;" edge="1" parent="1" source="46ZwgOibdGxCUjzkoEb6-66">
          <mxGeometry width="50" height="50" relative="1" as="geometry">
            <mxPoint x="330" y="300" as="sourcePoint" />
            <mxPoint x="369.73800000000006" y="187.52499999999998" as="targetPoint" />
            <Array as="points">
              <mxPoint x="85" y="160" />
              <mxPoint x="370" y="160" />
            </Array>
          </mxGeometry>
        </mxCell>
        <mxCell id="_C5KG6zpCRyK99vuwPRU-45" value="&lt;span style=&quot;border-color: var(--border-color); font-size: 5px;&quot;&gt;&lt;font style=&quot;font-size: 5px;&quot;&gt;Location &amp;amp; Scale Accident&lt;/font&gt;&lt;/span&gt;" style="rounded=0;whiteSpace=wrap;html=1;strokeWidth=0.5;align=center;verticalAlign=middle;fontSize=5;" vertex="1" parent="1">
          <mxGeometry x="437" y="155" width="30" height="40" as="geometry" />
        </mxCell>
        <mxCell id="_C5KG6zpCRyK99vuwPRU-46" value="&lt;span style=&quot;border-color: var(--border-color);&quot;&gt;Lat&lt;/span&gt;" style="rounded=0;whiteSpace=wrap;html=1;strokeWidth=0.5;align=center;verticalAlign=bottom;fontSize=5;" vertex="1" parent="1">
          <mxGeometry x="467" y="155" width="30" height="10" as="geometry" />
        </mxCell>
        <mxCell id="_C5KG6zpCRyK99vuwPRU-48" value="&lt;span style=&quot;border-color: var(--border-color);&quot;&gt;Lon&lt;/span&gt;" style="rounded=0;whiteSpace=wrap;html=1;strokeWidth=0.5;align=center;verticalAlign=bottom;fontSize=5;" vertex="1" parent="1">
          <mxGeometry x="467" y="165" width="30" height="10" as="geometry" />
        </mxCell>
        <mxCell id="_C5KG6zpCRyK99vuwPRU-51" value="&lt;span style=&quot;border-color: var(--border-color); color: rgb(51, 51, 51); font-size: 5px;&quot;&gt;0,6&lt;/span&gt;" style="rounded=0;whiteSpace=wrap;html=1;strokeWidth=0.5;align=center;verticalAlign=middle;fontSize=5;" vertex="1" parent="1">
          <mxGeometry x="527" y="155" width="30" height="40" as="geometry" />
        </mxCell>
        <mxCell id="_C5KG6zpCRyK99vuwPRU-52" value="&lt;span style=&quot;border-color: var(--border-color);&quot;&gt;Road Class&lt;/span&gt;" style="rounded=0;whiteSpace=wrap;html=1;strokeWidth=0.5;align=center;verticalAlign=bottom;fontSize=5;fontStyle=0" vertex="1" parent="1">
          <mxGeometry x="467" y="175" width="30" height="10" as="geometry" />
        </mxCell>
        <mxCell id="_C5KG6zpCRyK99vuwPRU-53" value="&lt;span style=&quot;border-color: var(--border-color);&quot;&gt;NÂº Vehicles&lt;/span&gt;" style="rounded=0;whiteSpace=wrap;html=1;strokeWidth=0.5;align=center;verticalAlign=bottom;fontSize=5;" vertex="1" parent="1">
          <mxGeometry x="467" y="185" width="30" height="10" as="geometry" />
        </mxCell>
        <mxCell id="_C5KG6zpCRyK99vuwPRU-54" value="&lt;span style=&quot;border-color: var(--border-color);&quot;&gt;0,1&lt;/span&gt;" style="rounded=0;whiteSpace=wrap;html=1;strokeWidth=0.5;align=center;verticalAlign=bottom;fontSize=5;" vertex="1" parent="1">
          <mxGeometry x="497" y="155" width="30" height="10" as="geometry" />
        </mxCell>
        <mxCell id="_C5KG6zpCRyK99vuwPRU-55" value="&lt;span style=&quot;border-color: var(--border-color);&quot;&gt;0,125&lt;/span&gt;" style="rounded=0;whiteSpace=wrap;html=1;strokeWidth=0.5;align=center;verticalAlign=bottom;fontSize=5;" vertex="1" parent="1">
          <mxGeometry x="497" y="175" width="30" height="10" as="geometry" />
        </mxCell>
        <mxCell id="_C5KG6zpCRyK99vuwPRU-56" value="&lt;span style=&quot;border-color: var(--border-color);&quot;&gt;0,2&lt;/span&gt;" style="rounded=0;whiteSpace=wrap;html=1;strokeWidth=0.5;align=center;verticalAlign=bottom;fontSize=5;" vertex="1" parent="1">
          <mxGeometry x="497" y="165" width="30" height="10" as="geometry" />
        </mxCell>
        <mxCell id="_C5KG6zpCRyK99vuwPRU-57" value="&lt;span style=&quot;border-color: var(--border-color);&quot;&gt;Lat&lt;/span&gt;" style="rounded=0;whiteSpace=wrap;html=1;strokeWidth=0.5;align=center;verticalAlign=bottom;fontSize=5;" vertex="1" parent="1">
          <mxGeometry x="497" y="185" width="30" height="10" as="geometry" />
        </mxCell>
        <mxCell id="_C5KG6zpCRyK99vuwPRU-43" value="&lt;font style=&quot;font-size: 5px;&quot;&gt;&lt;b&gt;Feature&lt;/b&gt;&lt;/font&gt;" style="rounded=0;whiteSpace=wrap;html=1;strokeWidth=1;align=center;verticalAlign=middle;fontSize=5;" vertex="1" parent="1">
          <mxGeometry x="467" y="135" width="30" height="20" as="geometry" />
        </mxCell>
        <mxCell id="_C5KG6zpCRyK99vuwPRU-44" value="&lt;b&gt;Category&lt;/b&gt;" style="rounded=0;whiteSpace=wrap;html=1;strokeWidth=1;align=center;verticalAlign=middle;fontSize=5;" vertex="1" parent="1">
          <mxGeometry x="437" y="135" width="30" height="20" as="geometry" />
        </mxCell>
        <mxCell id="_C5KG6zpCRyK99vuwPRU-49" value="&lt;font style=&quot;font-size: 5px;&quot;&gt;&lt;b&gt;Feature Weight&lt;/b&gt;&lt;/font&gt;" style="rounded=0;whiteSpace=wrap;html=1;strokeWidth=1;align=center;verticalAlign=middle;fontSize=5;" vertex="1" parent="1">
          <mxGeometry x="497" y="135" width="30" height="20" as="geometry" />
        </mxCell>
        <mxCell id="_C5KG6zpCRyK99vuwPRU-50" value="&lt;font style=&quot;font-size: 5px;&quot;&gt;&lt;b&gt;Category Weight&lt;/b&gt;&lt;/font&gt;" style="rounded=0;whiteSpace=wrap;html=1;strokeWidth=1;align=center;verticalAlign=middle;fontSize=5;" vertex="1" parent="1">
          <mxGeometry x="527" y="135" width="30" height="20" as="geometry" />
        </mxCell>
        <mxCell id="_C5KG6zpCRyK99vuwPRU-58" value="" style="endArrow=classic;html=1;rounded=0;entryX=0;entryY=0.5;entryDx=0;entryDy=0;exitX=1;exitY=0.5;exitDx=0;exitDy=0;" edge="1" parent="1" target="_C5KG6zpCRyK99vuwPRU-45">
          <mxGeometry width="50" height="50" relative="1" as="geometry">
            <mxPoint x="414" y="174.5" as="sourcePoint" />
            <mxPoint x="560" y="260" as="targetPoint" />
            <Array as="points" />
          </mxGeometry>
        </mxCell>
        <mxCell id="_C5KG6zpCRyK99vuwPRU-59" value="Matrix Construction" style="rounded=0;whiteSpace=wrap;html=1;fillColor=#d5e8d4;strokeColor=#82b366;" vertex="1" parent="1">
          <mxGeometry x="265" y="330" width="120" height="60" as="geometry" />
        </mxCell>
        <mxCell id="_C5KG6zpCRyK99vuwPRU-60" value="" style="endArrow=classic;html=1;rounded=0;exitX=0.25;exitY=1;exitDx=0;exitDy=0;entryX=0;entryY=0.5;entryDx=0;entryDy=0;" edge="1" parent="1" source="46ZwgOibdGxCUjzkoEb6-225" target="_C5KG6zpCRyK99vuwPRU-59">
          <mxGeometry width="50" height="50" relative="1" as="geometry">
            <mxPoint x="390" y="310" as="sourcePoint" />
            <mxPoint x="440" y="260" as="targetPoint" />
            <Array as="points">
              <mxPoint x="80" y="360" />
            </Array>
          </mxGeometry>
        </mxCell>
        <mxCell id="_C5KG6zpCRyK99vuwPRU-62" value="&lt;font style=&quot;font-size: 4px;&quot;&gt;NV&lt;/font&gt;" style="rounded=0;whiteSpace=wrap;html=1;verticalAlign=middle;fillColor=#f5f5f5;fontColor=#333333;strokeColor=#666666;strokeWidth=0.5;direction=south;fontSize=4;" vertex="1" parent="1">
          <mxGeometry x="514" y="262.5" width="10" height="10" as="geometry" />
        </mxCell>
        <mxCell id="_C5KG6zpCRyK99vuwPRU-63" value="" style="rounded=0;whiteSpace=wrap;html=1;verticalAlign=top;fillColor=#f5f5f5;fontColor=#333333;strokeColor=#666666;strokeWidth=0.5;direction=south;" vertex="1" parent="1">
          <mxGeometry x="524" y="262.5" width="10" height="10" as="geometry" />
        </mxCell>
        <mxCell id="_C5KG6zpCRyK99vuwPRU-64" value="&lt;font style=&quot;font-size: 4px;&quot;&gt;Lon&lt;/font&gt;" style="rounded=0;whiteSpace=wrap;html=1;verticalAlign=middle;fillColor=#f5f5f5;fontColor=#333333;strokeColor=#666666;strokeWidth=0.5;direction=south;align=center;fontSize=4;" vertex="1" parent="1">
          <mxGeometry x="534" y="262.5" width="10" height="10" as="geometry" />
        </mxCell>
        <mxCell id="_C5KG6zpCRyK99vuwPRU-65" value="Lon" style="rounded=0;whiteSpace=wrap;html=1;verticalAlign=middle;fillColor=#f5f5f5;fontColor=#333333;strokeColor=#666666;strokeWidth=0.5;direction=south;fontSize=4;" vertex="1" parent="1">
          <mxGeometry x="544" y="262.5" width="10" height="10" as="geometry" />
        </mxCell>
        <mxCell id="_C5KG6zpCRyK99vuwPRU-66" value="" style="rounded=0;whiteSpace=wrap;html=1;verticalAlign=top;fillColor=#f5f5f5;fontColor=#333333;strokeColor=#666666;strokeWidth=0.5;direction=south;" vertex="1" parent="1">
          <mxGeometry x="554" y="262.5" width="10" height="10" as="geometry" />
        </mxCell>
        <mxCell id="_C5KG6zpCRyK99vuwPRU-67" value="" style="rounded=0;whiteSpace=wrap;html=1;verticalAlign=top;fillColor=#f5f5f5;fontColor=#333333;strokeColor=#666666;strokeWidth=0.5;direction=south;" vertex="1" parent="1">
          <mxGeometry x="514" y="272.5" width="10" height="10" as="geometry" />
        </mxCell>
        <mxCell id="_C5KG6zpCRyK99vuwPRU-68" value="" style="rounded=0;whiteSpace=wrap;html=1;verticalAlign=top;fillColor=#f5f5f5;fontColor=#333333;strokeColor=#666666;strokeWidth=0.5;direction=south;" vertex="1" parent="1">
          <mxGeometry x="524" y="272.5" width="10" height="10" as="geometry" />
        </mxCell>
        <mxCell id="_C5KG6zpCRyK99vuwPRU-69" value="" style="rounded=0;whiteSpace=wrap;html=1;verticalAlign=top;fillColor=#f5f5f5;fontColor=#333333;strokeColor=#666666;strokeWidth=0.5;direction=south;" vertex="1" parent="1">
          <mxGeometry x="534" y="272.5" width="10" height="10" as="geometry" />
        </mxCell>
        <mxCell id="_C5KG6zpCRyK99vuwPRU-70" value="" style="rounded=0;whiteSpace=wrap;html=1;verticalAlign=top;fillColor=#f5f5f5;fontColor=#333333;strokeColor=#666666;strokeWidth=0.5;direction=south;" vertex="1" parent="1">
          <mxGeometry x="544" y="272.5" width="10" height="10" as="geometry" />
        </mxCell>
        <mxCell id="_C5KG6zpCRyK99vuwPRU-71" value="" style="rounded=0;whiteSpace=wrap;html=1;verticalAlign=top;fillColor=#f5f5f5;fontColor=#333333;strokeColor=#666666;strokeWidth=0.5;direction=south;" vertex="1" parent="1">
          <mxGeometry x="554" y="272.5" width="10" height="10" as="geometry" />
        </mxCell>
        <mxCell id="_C5KG6zpCRyK99vuwPRU-72" value="" style="rounded=0;whiteSpace=wrap;html=1;verticalAlign=top;fillColor=#f5f5f5;fontColor=#333333;strokeColor=#666666;strokeWidth=0.5;direction=south;" vertex="1" parent="1">
          <mxGeometry x="514" y="282.5" width="10" height="10" as="geometry" />
        </mxCell>
        <mxCell id="_C5KG6zpCRyK99vuwPRU-73" value="" style="rounded=0;whiteSpace=wrap;html=1;verticalAlign=top;fillColor=#f5f5f5;fontColor=#333333;strokeColor=#666666;strokeWidth=0.5;direction=south;" vertex="1" parent="1">
          <mxGeometry x="524" y="282.5" width="10" height="10" as="geometry" />
        </mxCell>
        <mxCell id="_C5KG6zpCRyK99vuwPRU-74" value="" style="rounded=0;whiteSpace=wrap;html=1;verticalAlign=top;fillColor=#f5f5f5;fontColor=#333333;strokeColor=#666666;strokeWidth=0.5;direction=south;" vertex="1" parent="1">
          <mxGeometry x="534" y="282.5" width="10" height="10" as="geometry" />
        </mxCell>
        <mxCell id="_C5KG6zpCRyK99vuwPRU-75" value="" style="rounded=0;whiteSpace=wrap;html=1;verticalAlign=top;fillColor=#f5f5f5;fontColor=#333333;strokeColor=#666666;strokeWidth=0.5;direction=south;" vertex="1" parent="1">
          <mxGeometry x="544" y="282.5" width="10" height="10" as="geometry" />
        </mxCell>
        <mxCell id="_C5KG6zpCRyK99vuwPRU-76" value="" style="rounded=0;whiteSpace=wrap;html=1;verticalAlign=top;fillColor=#f5f5f5;fontColor=#333333;strokeColor=#666666;strokeWidth=0.5;direction=south;" vertex="1" parent="1">
          <mxGeometry x="554" y="282.5" width="10" height="10" as="geometry" />
        </mxCell>
        <mxCell id="_C5KG6zpCRyK99vuwPRU-77" value="" style="rounded=0;whiteSpace=wrap;html=1;verticalAlign=top;fillColor=#f5f5f5;fontColor=#333333;strokeColor=#666666;strokeWidth=0.5;direction=south;" vertex="1" parent="1">
          <mxGeometry x="514" y="292.5" width="10" height="10" as="geometry" />
        </mxCell>
        <mxCell id="_C5KG6zpCRyK99vuwPRU-78" value="" style="rounded=0;whiteSpace=wrap;html=1;verticalAlign=top;fillColor=#f5f5f5;fontColor=#333333;strokeColor=#666666;strokeWidth=0.5;direction=south;" vertex="1" parent="1">
          <mxGeometry x="524" y="292.5" width="10" height="10" as="geometry" />
        </mxCell>
        <mxCell id="_C5KG6zpCRyK99vuwPRU-79" value="" style="rounded=0;whiteSpace=wrap;html=1;verticalAlign=top;fillColor=#f5f5f5;fontColor=#333333;strokeColor=#666666;strokeWidth=0.5;direction=south;" vertex="1" parent="1">
          <mxGeometry x="534" y="292.5" width="10" height="10" as="geometry" />
        </mxCell>
        <mxCell id="_C5KG6zpCRyK99vuwPRU-80" value="" style="rounded=0;whiteSpace=wrap;html=1;verticalAlign=top;fillColor=#f5f5f5;fontColor=#333333;strokeColor=#666666;strokeWidth=0.5;direction=south;" vertex="1" parent="1">
          <mxGeometry x="544" y="292.5" width="10" height="10" as="geometry" />
        </mxCell>
        <mxCell id="_C5KG6zpCRyK99vuwPRU-81" value="" style="rounded=0;whiteSpace=wrap;html=1;verticalAlign=top;fillColor=#f5f5f5;fontColor=#333333;strokeColor=#666666;strokeWidth=0.5;direction=south;" vertex="1" parent="1">
          <mxGeometry x="554" y="292.5" width="10" height="10" as="geometry" />
        </mxCell>
        <mxCell id="_C5KG6zpCRyK99vuwPRU-82" value="" style="rounded=0;whiteSpace=wrap;html=1;verticalAlign=top;fillColor=#f5f5f5;fontColor=#333333;strokeColor=#666666;strokeWidth=0.5;direction=south;" vertex="1" parent="1">
          <mxGeometry x="514" y="302.5" width="10" height="10" as="geometry" />
        </mxCell>
        <mxCell id="_C5KG6zpCRyK99vuwPRU-83" value="" style="rounded=0;whiteSpace=wrap;html=1;verticalAlign=top;fillColor=#f5f5f5;fontColor=#333333;strokeColor=#666666;strokeWidth=0.5;direction=south;" vertex="1" parent="1">
          <mxGeometry x="524" y="302.5" width="10" height="10" as="geometry" />
        </mxCell>
        <mxCell id="_C5KG6zpCRyK99vuwPRU-84" value="" style="rounded=0;whiteSpace=wrap;html=1;verticalAlign=top;fillColor=#f5f5f5;fontColor=#333333;strokeColor=#666666;strokeWidth=0.5;direction=south;" vertex="1" parent="1">
          <mxGeometry x="534" y="302.5" width="10" height="10" as="geometry" />
        </mxCell>
        <mxCell id="_C5KG6zpCRyK99vuwPRU-85" value="" style="rounded=0;whiteSpace=wrap;html=1;verticalAlign=top;fillColor=#f5f5f5;fontColor=#333333;strokeColor=#666666;strokeWidth=0.5;direction=south;" vertex="1" parent="1">
          <mxGeometry x="544" y="302.5" width="10" height="10" as="geometry" />
        </mxCell>
        <mxCell id="_C5KG6zpCRyK99vuwPRU-86" value="" style="rounded=0;whiteSpace=wrap;html=1;verticalAlign=top;fillColor=#f5f5f5;fontColor=#333333;strokeColor=#666666;strokeWidth=0.5;direction=south;" vertex="1" parent="1">
          <mxGeometry x="554" y="302.5" width="10" height="10" as="geometry" />
        </mxCell>
        <mxCell id="_C5KG6zpCRyK99vuwPRU-87" value="" style="rounded=0;whiteSpace=wrap;html=1;verticalAlign=top;fillColor=#f5f5f5;fontColor=#333333;strokeColor=#666666;strokeWidth=0.5;direction=south;" vertex="1" parent="1">
          <mxGeometry x="514" y="312.5" width="10" height="10" as="geometry" />
        </mxCell>
        <mxCell id="_C5KG6zpCRyK99vuwPRU-88" value="" style="rounded=0;whiteSpace=wrap;html=1;verticalAlign=top;fillColor=#f5f5f5;fontColor=#333333;strokeColor=#666666;strokeWidth=0.5;direction=south;" vertex="1" parent="1">
          <mxGeometry x="524" y="312.5" width="10" height="10" as="geometry" />
        </mxCell>
        <mxCell id="_C5KG6zpCRyK99vuwPRU-89" value="" style="rounded=0;whiteSpace=wrap;html=1;verticalAlign=top;fillColor=#f5f5f5;fontColor=#333333;strokeColor=#666666;strokeWidth=0.5;direction=south;" vertex="1" parent="1">
          <mxGeometry x="534" y="312.5" width="10" height="10" as="geometry" />
        </mxCell>
        <mxCell id="_C5KG6zpCRyK99vuwPRU-90" value="" style="rounded=0;whiteSpace=wrap;html=1;verticalAlign=top;fillColor=#f5f5f5;fontColor=#333333;strokeColor=#666666;strokeWidth=0.5;direction=south;" vertex="1" parent="1">
          <mxGeometry x="544" y="312.5" width="10" height="10" as="geometry" />
        </mxCell>
        <mxCell id="_C5KG6zpCRyK99vuwPRU-91" value="" style="rounded=0;whiteSpace=wrap;html=1;verticalAlign=top;fillColor=#f5f5f5;fontColor=#333333;strokeColor=#666666;strokeWidth=0.5;direction=south;" vertex="1" parent="1">
          <mxGeometry x="554" y="312.5" width="10" height="10" as="geometry" />
        </mxCell>
        <mxCell id="_C5KG6zpCRyK99vuwPRU-92" value="&lt;font style=&quot;font-size: 10px;&quot;&gt;Data Indexing&lt;/font&gt;" style="rounded=0;whiteSpace=wrap;html=1;fillColor=#d5e8d4;strokeColor=#82b366;" vertex="1" parent="1">
          <mxGeometry x="323" y="275" width="74" height="35" as="geometry" />
        </mxCell>
        <mxCell id="_C5KG6zpCRyK99vuwPRU-93" value="&lt;font style=&quot;font-size: 10px;&quot;&gt;Categorize features&lt;/font&gt;" style="rounded=0;whiteSpace=wrap;html=1;fillColor=#d5e8d4;strokeColor=#82b366;" vertex="1" parent="1">
          <mxGeometry x="326" y="187.5" width="74" height="35" as="geometry" />
        </mxCell>
        <mxCell id="_C5KG6zpCRyK99vuwPRU-98" value="&lt;span style=&quot;border-color: var(--border-color); font-size: 4px;&quot;&gt;&lt;font style=&quot;font-size: 4px;&quot;&gt;Location &amp;amp; Scale Accident&lt;/font&gt;&lt;/span&gt;" style="rounded=0;whiteSpace=wrap;html=1;strokeWidth=0.5;align=center;verticalAlign=middle;fontSize=4;" vertex="1" parent="1">
          <mxGeometry x="457" y="262.5" width="57" height="10" as="geometry" />
        </mxCell>
        <mxCell id="_C5KG6zpCRyK99vuwPRU-100" value="&lt;span style=&quot;border-color: var(--border-color); font-size: 4px;&quot;&gt;&lt;font style=&quot;font-size: 4px;&quot;&gt;Location &amp;amp; Scale Accident&lt;/font&gt;&lt;/span&gt;" style="rounded=0;whiteSpace=wrap;html=1;strokeWidth=0.5;align=center;verticalAlign=middle;fontSize=4;" vertex="1" parent="1">
          <mxGeometry x="457" y="272.5" width="57" height="10" as="geometry" />
        </mxCell>
        <mxCell id="_C5KG6zpCRyK99vuwPRU-101" value="&lt;span style=&quot;border-color: var(--border-color); font-size: 4px;&quot;&gt;&lt;font style=&quot;font-size: 4px;&quot;&gt;Location &amp;amp; Scale Accident&lt;/font&gt;&lt;/span&gt;" style="rounded=0;whiteSpace=wrap;html=1;strokeWidth=0.5;align=center;verticalAlign=middle;fontSize=4;" vertex="1" parent="1">
          <mxGeometry x="457" y="282.5" width="57" height="10" as="geometry" />
        </mxCell>
        <mxCell id="_C5KG6zpCRyK99vuwPRU-102" value="&lt;span style=&quot;border-color: var(--border-color); font-size: 4px;&quot;&gt;&lt;font style=&quot;font-size: 4px;&quot;&gt;Location &amp;amp; Scale Accident&lt;/font&gt;&lt;/span&gt;" style="rounded=0;whiteSpace=wrap;html=1;strokeWidth=0.5;align=center;verticalAlign=middle;fontSize=4;" vertex="1" parent="1">
          <mxGeometry x="457" y="312.5" width="57" height="10" as="geometry" />
        </mxCell>
        <mxCell id="_C5KG6zpCRyK99vuwPRU-103" value="&lt;span style=&quot;border-color: var(--border-color); font-size: 4px;&quot;&gt;&lt;font style=&quot;font-size: 4px;&quot;&gt;Location &amp;amp; Scale Accident&lt;/font&gt;&lt;/span&gt;" style="rounded=0;whiteSpace=wrap;html=1;strokeWidth=0.5;align=center;verticalAlign=middle;fontSize=4;" vertex="1" parent="1">
          <mxGeometry x="457" y="292.5" width="57" height="10" as="geometry" />
        </mxCell>
        <mxCell id="_C5KG6zpCRyK99vuwPRU-104" value="&lt;span style=&quot;border-color: var(--border-color); font-size: 4px;&quot;&gt;&lt;font style=&quot;font-size: 4px;&quot;&gt;Location &amp;amp; Scale Accident&lt;/font&gt;&lt;/span&gt;" style="rounded=0;whiteSpace=wrap;html=1;strokeWidth=0.5;align=center;verticalAlign=middle;fontSize=4;" vertex="1" parent="1">
          <mxGeometry x="457" y="302.5" width="57" height="10" as="geometry" />
        </mxCell>
        <mxCell id="_C5KG6zpCRyK99vuwPRU-105" value="&lt;font style=&quot;font-size: 4px;&quot;&gt;RC&lt;/font&gt;" style="rounded=0;whiteSpace=wrap;html=1;verticalAlign=middle;fillColor=#f5f5f5;fontColor=#333333;strokeColor=#666666;strokeWidth=0.5;direction=south;align=center;fontSize=4;" vertex="1" parent="1">
          <mxGeometry x="524" y="262.5" width="10" height="10" as="geometry" />
        </mxCell>
      </root>
    </mxGraphModel>
  </diagram>
</mxfile>
